<svg width="24" height="24" viewBox="0 0 24 24" fill="none" xmlns="http://www.w3.org/2000/svg">
<path d="M17.78 6.21484H6.21289V17.782H17.78V6.21484Z" fill="white"/>
<path d="M17.78 17.7852H6.21289V23.0008H17.78V17.7852Z" fill="#34A853"/>
<path d="M17.7828 1H2.73855C2.27848 1.00331 1.8382 1.18755 1.51287 1.51287C1.18755 1.8382 1.00331 2.27848 1 2.73855V17.7828H6.21565V6.21565H17.7828V1Z" fill="#4285F4"/>
<path d="M1 17.7852V21.2623C1.00331 21.7223 1.18755 22.1626 1.51287 22.4879C1.8382 22.8133 2.27848 22.9975 2.73855 23.0008H6.21565V17.7852H1Z" fill="#188038"/>
<path d="M22.9969 6.21484H17.7812V17.782H22.9969V6.21484Z" fill="#FBBC04"/>
<path d="M22.9969 6.21565V2.73855C22.9936 2.27848 22.8093 1.8382 22.484 1.51287C22.1587 1.18755 21.7184 1.00331 21.2583 1H17.7812V6.21565H22.9969Z" fill="#1967D2"/>
<path d="M17.7812 23.0008L22.9969 17.7852H17.7812V23.0008Z" fill="#EA4335"/>
<path d="M13.6351 10.9669L13.082 10.1839L15.0503 8.76172H15.7972V15.4561H14.7269V10.1303L13.6351 10.9669Z" fill="#2A83F8"/>
<path d="M11.1755 11.933C11.4204 11.7681 11.6218 11.5463 11.7623 11.2866C11.9029 11.027 11.9784 10.7371 11.9826 10.4419C11.9826 9.4011 11.0554 8.55964 9.91027 8.55964C9.45341 8.54497 9.00493 8.6846 8.63714 8.95601C8.26935 9.22743 8.00369 9.6148 7.88301 10.0557L8.80155 10.4225C8.85065 10.1863 8.98159 9.97495 9.17129 9.82583C9.36099 9.6767 9.59725 9.59935 9.83842 9.60741C9.97083 9.59481 10.1044 9.60989 10.2307 9.65169C10.357 9.69349 10.4732 9.76109 10.5719 9.85021C10.6707 9.93932 10.7498 10.048 10.8043 10.1693C10.8588 10.2907 10.8875 10.422 10.8885 10.555C10.8895 10.688 10.8628 10.8198 10.8102 10.942C10.7575 11.0641 10.68 11.174 10.5827 11.2646C10.4853 11.3552 10.3701 11.4246 10.2445 11.4683C10.1189 11.512 9.98551 11.5291 9.85292 11.5185V11.5197H9.83996L9.83842 11.5198L9.83618 11.5197H9.28671V12.4183H9.91407L9.91954 12.418C10.0706 12.404 10.223 12.4216 10.3668 12.4698C10.5107 12.518 10.6429 12.5957 10.7551 12.6979C10.8672 12.8001 10.9568 12.9246 11.0181 13.0634C11.0794 13.2022 11.111 13.3523 11.111 13.504C11.111 13.6557 11.0794 13.8058 11.0181 13.9446C10.9568 14.0834 10.8672 14.2079 10.7551 14.3101C10.6429 14.4123 10.5107 14.49 10.3668 14.5382C10.223 14.5864 10.0706 14.604 9.91954 14.59C9.74747 14.5918 9.5769 14.5579 9.41864 14.4903C9.26039 14.4227 9.1179 14.323 9.00022 14.1974C8.92291 14.112 8.85996 14.0146 8.81383 13.909L8.65213 13.5151L7.68262 13.89C7.82634 14.8937 8.76979 15.6702 9.91028 15.6702C11.1528 15.6702 12.1588 14.7523 12.1588 13.6234C12.1532 13.281 12.0598 12.9459 11.8877 12.6499C11.7155 12.354 11.4703 12.1071 11.1755 11.933Z" fill="#2A83F8"/>
</svg>
