<svg width="24" height="24" viewBox="0 0 24 24" fill="none" xmlns="http://www.w3.org/2000/svg">
<path d="M14.4156 6.16906V10.8267L16.2206 12.2613L22.9756 6.8199C22.9721 6.72982 22.9502 6.64141 22.9111 6.56019C22.8719 6.47897 22.8165 6.40667 22.7482 6.34781C22.6101 6.22888 22.4327 6.1655 22.2505 6.16998L14.4156 6.16906ZM13.2872 2L1 4.2037V20.4803L13.2872 22.6253V2ZM8.79728 14.9444C8.27386 15.6356 7.61476 15.9959 6.831 16.028C6.07291 15.9885 5.42848 15.6237 4.90506 14.9389C4.38255 14.2496 4.10755 13.3888 4.09379 12.3539C4.10755 11.3052 4.3688 10.4353 4.89131 9.74778C5.41473 9.06119 6.06099 8.70001 6.81633 8.66976C7.60101 8.70001 8.26102 9.0621 8.76978 9.74778C9.28862 10.4353 9.55721 11.3043 9.57554 12.3539H9.60854C9.59479 13.3879 9.31979 14.2514 8.79728 14.9444Z" fill="#136EC5"/>
<path d="M6.71522 10.053L6.69047 10.0897C6.29171 10.1181 5.95987 10.3408 5.69954 10.757C5.42453 11.1732 5.30078 11.7159 5.30078 12.3685C5.30078 13.0203 5.42453 13.563 5.69954 13.9929C5.97454 14.4228 6.30363 14.6318 6.7033 14.6318C7.10297 14.6318 7.43206 14.41 7.70798 13.9801C7.97015 13.5501 8.10674 13.0075 8.10674 12.3401C8.10674 11.6856 7.96924 11.1448 7.70798 10.7176C7.44306 10.2904 7.11031 10.0723 6.71522 10.053ZM14.4153 18.4892H22.2502C22.3486 18.4914 22.4464 18.4737 22.5377 18.4371C22.6291 18.4006 22.7121 18.346 22.7819 18.2765C22.8531 18.2075 22.9093 18.1245 22.9469 18.0327C22.9844 17.9408 23.0025 17.8422 23 17.743V8.03906L16.586 13.1816C16.4841 13.2605 16.3582 13.3019 16.2294 13.299C16.1034 13.3035 15.9799 13.2622 15.882 13.1826L14.4153 12.044V18.4892Z" fill="#136EC5"/>
</svg>
