<svg width="140" height="32" viewBox="0 0 140 32" fill="none" xmlns="http://www.w3.org/2000/svg">
<mask id="mask0_592_10122" style="mask-type:luminance" maskUnits="userSpaceOnUse" x="0" y="6" width="44" height="20">
<path d="M43.827 6.08301H0V25.9177H43.827V6.08301Z" fill="white"/>
</mask>
<g mask="url(#mask0_592_10122)">
<path d="M42.9658 21.1133H21.5903C21.1148 21.1133 20.7295 21.5014 20.7295 21.9803V25.0152C20.7295 25.494 21.1148 25.8823 21.5903 25.8823H42.9658C43.4412 25.8823 43.8266 25.494 43.8266 25.0152V21.9803C43.8266 21.5014 43.4412 21.1133 42.9658 21.1133Z" fill="#FDE235"/>
<path d="M15.7234 6.69633L0.608557 21.9223C0.272408 22.261 0.272408 22.81 0.608556 23.1486L2.73883 25.2945C3.07497 25.6331 3.61998 25.6331 3.95613 25.2945L19.0709 10.0686C19.4071 9.72992 19.4071 9.18089 19.0709 8.84231L16.9406 6.69633C16.6045 6.35773 16.0595 6.35773 15.7234 6.69633Z" fill="#101323"/>
<path d="M25.5867 6.69633L10.4719 21.9223C10.1357 22.261 10.1357 22.81 10.4719 23.1486L12.6021 25.2945C12.9383 25.6331 13.4833 25.6331 13.8195 25.2945L28.9342 10.0686C29.2704 9.72992 29.2704 9.18089 28.9342 8.84231L26.8039 6.69633C26.4678 6.35773 25.9228 6.35773 25.5867 6.69633Z" fill="#101323"/>
</g>
<path d="M58.4056 25.8779C57.009 25.8779 55.8067 25.5617 54.7984 24.9294C53.7964 24.2908 53.0261 23.4111 52.4875 22.2904C51.949 21.1696 51.6797 19.8861 51.6797 18.4399C51.6797 16.9748 51.9553 15.6819 52.5063 14.5612C53.0575 13.4342 53.834 12.5546 54.836 11.9222C55.838 11.2898 57.0184 10.9737 58.3774 10.9737C59.4733 10.9737 60.4502 11.1772 61.3082 11.5841C62.1661 11.9848 62.8581 12.5483 63.3842 13.2746C63.9165 14.0008 64.2327 14.8492 64.333 15.8197H61.5994C61.4491 15.1435 61.1047 14.5612 60.5661 14.0728C60.0338 13.5845 59.3199 13.3403 58.4244 13.3403C57.6416 13.3403 56.9558 13.547 56.3671 13.9602C55.7847 14.3671 55.3307 14.9494 55.005 15.707C54.6794 16.4583 54.5166 17.3474 54.5166 18.3741C54.5166 19.426 54.6763 20.3338 54.9956 21.0976C55.3151 21.8615 55.7659 22.4531 56.3484 22.8726C56.937 23.2922 57.629 23.5019 58.4244 23.5019C58.9566 23.5019 59.4389 23.4048 59.871 23.2107C60.3094 23.0104 60.6757 22.7255 60.97 22.3561C61.2706 21.9867 61.4804 21.5422 61.5994 21.0225H64.333C64.2327 21.9554 63.9291 22.7881 63.4218 23.5206C62.9145 24.2532 62.235 24.8292 61.3833 25.2486C60.5379 25.6681 59.5453 25.8779 58.4056 25.8779ZM71.5358 25.9061C70.6212 25.9061 69.7946 25.737 69.0559 25.3989C68.3165 25.0546 67.7313 24.5568 67.2988 23.9057C66.8729 23.2545 66.66 22.4563 66.66 21.5109C66.66 20.697 66.8167 20.027 67.1301 19.5011C67.4429 18.9752 67.8655 18.5589 68.3979 18.252C68.9302 17.9452 69.5254 17.7136 70.1828 17.5571C70.8401 17.4006 71.5107 17.2816 72.1932 17.2002C73.0575 17.1 73.7585 17.0186 74.2975 16.956C74.8358 16.8872 75.2273 16.7776 75.4713 16.6274C75.716 16.4771 75.8377 16.2329 75.8377 15.8948V15.8291C75.8377 15.0088 75.6062 14.3734 75.1426 13.9226C74.6856 13.4718 74.0032 13.2464 73.0952 13.2464C72.1495 13.2464 71.4042 13.4562 70.8593 13.8756C70.3203 14.2888 69.948 14.7491 69.7417 15.2562L67.1017 14.6551C67.4152 13.7786 67.8721 13.0711 68.4733 12.5327C69.0804 11.988 69.7787 11.5935 70.5683 11.3493C71.3573 11.0989 72.1865 10.9737 73.0575 10.9737C73.6335 10.9737 74.2439 11.0426 74.8893 11.1803C75.5401 11.3118 76.1478 11.556 76.7113 11.9128C77.2813 12.2697 77.7482 12.78 78.1113 13.4436C78.4743 14.101 78.6562 14.9557 78.6562 16.0075V25.5868H75.913V23.6145H75.8C75.6188 23.9777 75.3463 24.3346 74.9832 24.6852C74.6195 25.0358 74.1533 25.3269 73.5832 25.5586C73.0132 25.7903 72.3307 25.9061 71.5358 25.9061ZM72.1462 23.6522C72.9226 23.6522 73.5865 23.4988 74.1374 23.1919C74.6949 22.8851 75.1175 22.4845 75.4058 21.9899C75.7001 21.489 75.8469 20.9536 75.8469 20.3839V18.5244C75.7471 18.6246 75.5526 18.7185 75.265 18.8061C74.9832 18.8875 74.6605 18.9595 74.2975 19.0221C73.9337 19.0785 73.5799 19.1317 73.236 19.1818C72.8915 19.2256 72.6032 19.2632 72.3717 19.2945C71.8268 19.3634 71.3288 19.4792 70.8778 19.642C70.4334 19.8047 70.0763 20.0395 69.8071 20.3464C69.5439 20.6469 69.4123 21.0476 69.4123 21.5484C69.4123 22.2434 69.6696 22.7693 70.1828 23.1262C70.6966 23.4768 71.3506 23.6522 72.1462 23.6522ZM93.209 14.6833L90.6636 15.1341C90.5572 14.8085 90.3879 14.4986 90.1564 14.2043C89.9309 13.9101 89.6241 13.669 89.2359 13.4812C88.847 13.2933 88.3616 13.1995 87.7796 13.1995C86.9841 13.1995 86.3201 13.3779 85.7878 13.7348C85.2561 14.0854 84.9896 14.5393 84.9896 15.0965C84.9896 15.5786 85.1681 15.9668 85.5252 16.2611C85.8817 16.5554 86.4583 16.7963 87.2532 16.9842L89.5454 17.5101C90.8733 17.8169 91.8626 18.2896 92.514 18.9283C93.1654 19.5669 93.4907 20.3964 93.4907 21.417C93.4907 22.281 93.2401 23.0511 92.7395 23.7273C92.2448 24.3972 91.5524 24.9231 90.6636 25.305C89.7801 25.6869 88.7564 25.8779 87.5918 25.8779C85.9762 25.8779 84.6576 25.5335 83.6372 24.8448C82.6161 24.1499 81.9899 23.1638 81.7584 21.8865L84.4731 21.4733C84.6417 22.1808 84.9896 22.7161 85.516 23.0793C86.0417 23.4362 86.7275 23.6145 87.5727 23.6145C88.4932 23.6145 89.2292 23.4236 89.7801 23.0417C90.3317 22.6535 90.6068 22.1808 90.6068 21.6236C90.6068 21.1728 90.4381 20.794 90.0995 20.4872C89.7676 20.1804 89.2577 19.9487 88.5686 19.7922L86.1264 19.2569C84.7799 18.9501 83.784 18.4618 83.1392 17.7919C82.5004 17.122 82.181 16.2736 82.181 15.2468C82.181 14.3953 82.419 13.6502 82.8945 13.0116C83.3707 12.373 84.028 11.8753 84.8672 11.5184C85.7064 11.1552 86.668 10.9737 87.7512 10.9737C89.3106 10.9737 90.538 11.3118 91.4334 11.988C92.3295 12.6579 92.9207 13.5564 93.209 14.6833ZM102.797 25.8779C101.376 25.8779 100.151 25.5743 99.1245 24.9669C98.1041 24.3534 97.3151 23.4925 96.7576 22.3843C96.2061 21.2698 95.931 19.9644 95.931 18.4681C95.931 16.9905 96.2061 15.6882 96.7576 14.5612C97.3151 13.4342 98.0915 12.5546 99.0874 11.9222C100.089 11.2898 101.261 10.9737 102.6 10.9737C103.414 10.9737 104.203 11.1083 104.968 11.3775C105.732 11.6467 106.417 12.0693 107.025 12.6453C107.632 13.2213 108.111 13.9696 108.462 14.8899C108.813 15.804 108.988 16.9154 108.988 18.2239V19.2194H97.5181V17.1157H106.236C106.236 16.3769 106.085 15.7226 105.785 15.1529C105.484 14.5768 105.062 14.123 104.517 13.7911C103.978 13.4593 103.346 13.2933 102.619 13.2933C101.83 13.2933 101.141 13.4875 100.552 13.8756C99.9703 14.2576 99.5193 14.7585 99.1999 15.3783C98.8864 15.9919 98.7303 16.6586 98.7303 17.3786V19.0221C98.7303 19.9864 98.899 20.8065 99.2376 21.4827C99.5821 22.1589 100.061 22.6754 100.675 23.0323C101.288 23.3829 102.005 23.5582 102.826 23.5582C103.358 23.5582 103.844 23.4831 104.282 23.3328C104.721 23.1763 105.099 22.9446 105.418 22.6379C105.738 22.3311 105.982 21.9522 106.151 21.5015L108.809 21.9805C108.596 22.7631 108.215 23.4486 107.663 24.0371C107.118 24.6194 106.433 25.0734 105.606 25.3989C104.786 25.7183 103.85 25.8779 102.797 25.8779ZM114.913 6.3531V25.5868H112.104V6.3531H114.913ZM118.691 25.5868V11.1615H121.501V25.5868H118.691ZM120.11 8.93572C119.622 8.93572 119.202 8.77294 118.851 8.44739C118.507 8.11556 118.335 7.72111 118.335 7.26405C118.335 6.80078 118.507 6.40632 118.851 6.08075C119.202 5.74892 119.622 5.58301 120.11 5.58301C120.599 5.58301 121.015 5.74892 121.359 6.08075C121.71 6.40632 121.886 6.80078 121.886 7.26405C121.886 7.72111 121.71 8.11556 121.359 8.44739C121.015 8.77294 120.599 8.93572 120.11 8.93572ZM125.504 25.5868V6.3531H128.313V13.5H128.482C128.645 13.1995 128.88 12.852 129.186 12.4575C129.493 12.0631 129.919 11.7187 130.464 11.4244C131.009 11.124 131.729 10.9737 132.625 10.9737C133.79 10.9737 134.829 11.268 135.743 11.8565C136.658 12.445 137.375 13.2933 137.895 14.4016C138.421 15.5097 138.684 16.8434 138.684 18.4023C138.684 19.9613 138.424 21.298 137.904 22.4125C137.384 23.5206 136.671 24.3753 135.763 24.9763C134.855 25.5711 133.818 25.8685 132.653 25.8685C131.776 25.8685 131.059 25.7214 130.502 25.4271C129.951 25.1328 129.518 24.7885 129.206 24.394C128.892 23.9996 128.651 23.649 128.482 23.3422H128.247V25.5868H125.504ZM128.257 18.3741C128.257 19.3884 128.404 20.2775 128.698 21.0413C128.993 21.8051 129.419 22.4031 129.976 22.8351C130.533 23.2608 131.216 23.4737 132.023 23.4737C132.863 23.4737 133.564 23.2514 134.128 22.8069C134.691 22.3561 135.117 21.7456 135.405 20.9756C135.7 20.2055 135.847 19.3383 135.847 18.3741C135.847 17.4225 135.703 16.5679 135.415 15.8103C135.133 15.0527 134.707 14.4548 134.137 14.0165C133.574 13.5782 132.869 13.3591 132.023 13.3591C131.209 13.3591 130.52 13.5688 129.957 13.9883C129.399 14.4079 128.977 14.9932 128.689 15.7445C128.401 16.4959 128.257 17.3724 128.257 18.3741Z" fill="#101323"/>
</svg>
