<svg width="176" height="40" viewBox="0 0 176 40" fill="none" xmlns="http://www.w3.org/2000/svg">
<g clip-path="url(#clip0_139_7378)">
<mask id="mask0_139_7378" style="mask-type:luminance" maskUnits="userSpaceOnUse" x="0" y="7" width="56" height="26">
<path d="M55.2838 7.60333H0.5V32.3967H55.2838V7.60333Z" fill="white"/>
</mask>
<g mask="url(#mask0_139_7378)">
<path d="M54.2075 26.3903H27.4881C26.8938 26.3903 26.4121 26.8755 26.4121 27.4741V31.2677C26.4121 31.8663 26.8938 32.3516 27.4881 32.3516H54.2075C54.8017 32.3516 55.2835 31.8663 55.2835 31.2677V27.4741C55.2835 26.8755 54.8017 26.3903 54.2075 26.3903Z" fill="#FDE235"/>
<path d="M20.1539 8.36968L1.26045 27.4022C0.840266 27.8255 0.840266 28.5117 1.26045 28.935L3.92329 31.6174C4.34347 32.0407 5.02473 32.0407 5.44491 31.6174L24.3384 12.585C24.7586 12.1617 24.7586 11.4754 24.3384 11.0522L21.6755 8.36968C21.2554 7.94643 20.5741 7.94643 20.1539 8.36968Z" fill="white"/>
<path d="M32.4821 8.36968L13.5886 27.4022C13.1684 27.8255 13.1684 28.5117 13.5886 28.935L16.2514 31.6174C16.6716 32.0407 17.3529 32.0407 17.7731 31.6174L36.6666 12.585C37.0867 12.1617 37.0867 11.4754 36.6666 11.0522L34.0037 8.36968C33.5835 7.94643 32.9023 7.94643 32.4821 8.36968Z" fill="white"/>
</g>
<path d="M73.5079 32.3473C71.7622 32.3473 70.2593 31.9521 68.9989 31.1617C67.7465 30.3635 66.7836 29.2639 66.1104 27.863C65.4372 26.462 65.1006 24.8577 65.1006 23.0498C65.1006 21.2185 65.445 19.6024 66.1339 18.2016C66.8228 16.7928 67.7935 15.6932 69.046 14.9028C70.2984 14.1123 71.774 13.7171 73.4727 13.7171C74.8426 13.7171 76.0638 13.9715 77.1362 14.4801C78.2086 14.9811 79.0736 15.6854 79.7312 16.5932C80.3966 17.5011 80.7919 18.5616 80.9172 19.7746H77.5002C77.3124 18.9293 76.8818 18.2016 76.2086 17.5911C75.5432 16.9806 74.6509 16.6754 73.5314 16.6754C72.5529 16.6754 71.6957 16.9337 70.9599 17.4502C70.2319 17.9589 69.6644 18.6868 69.2573 19.6337C68.8502 20.5729 68.6467 21.6842 68.6467 22.9677C68.6467 24.2825 68.8463 25.4173 69.2455 26.372C69.6448 27.3268 70.2084 28.0664 70.9364 28.5908C71.6722 29.1152 72.5372 29.3773 73.5314 29.3773C74.1968 29.3773 74.7996 29.256 75.3397 29.0134C75.8877 28.763 76.3456 28.4068 76.7135 27.9451C77.0893 27.4834 77.3515 26.9277 77.5002 26.2782H80.9172C80.7919 27.4443 80.4123 28.4851 79.7782 29.4008C79.1442 30.3165 78.2948 31.0365 77.2301 31.5608C76.1734 32.0852 74.9327 32.3473 73.5079 32.3473ZM89.9207 32.3826C88.7775 32.3826 87.7442 32.1713 86.8208 31.7487C85.8967 31.3182 85.1651 30.696 84.6245 29.8821C84.0921 29.0682 83.8259 28.0704 83.8259 26.8886C83.8259 25.8712 84.0218 25.0338 84.4137 24.3764C84.8047 23.719 85.3329 23.1986 85.9983 22.815C86.6638 22.4316 87.4078 22.142 88.2294 21.9463C89.0511 21.7507 89.8893 21.602 90.7424 21.5002C91.8229 21.375 92.6991 21.2733 93.3728 21.195C94.0457 21.109 94.5351 20.972 94.8401 20.7842C95.1459 20.5963 95.298 20.2911 95.298 19.8685V19.7863C95.298 18.7611 95.0087 17.9668 94.4292 17.4033C93.858 16.8397 93.0049 16.558 91.87 16.558C90.6879 16.558 89.7562 16.8202 89.0751 17.3445C88.4014 17.8611 87.936 18.4363 87.6781 19.0702L84.3781 18.3189C84.7699 17.2233 85.3412 16.3389 86.0926 15.6659C86.8514 14.9849 87.7244 14.4919 88.7114 14.1867C89.6975 13.8736 90.7342 13.7171 91.8228 13.7171C92.5429 13.7171 93.3058 13.8032 94.1126 13.9754C94.9261 14.1397 95.6857 14.4449 96.39 14.8911C97.1026 15.3372 97.6862 15.9749 98.14 16.8045C98.5939 17.6263 98.8212 18.6946 98.8212 20.0094V31.9834H95.3923V29.5182H95.2509C95.0244 29.9721 94.6839 30.4182 94.23 30.8565C93.7754 31.2948 93.1926 31.6587 92.48 31.9482C91.7675 32.2378 90.9144 32.3826 89.9207 32.3826ZM90.6837 29.5652C91.6542 29.5652 92.4842 29.3735 93.1727 28.9899C93.8696 28.6064 94.3978 28.1056 94.7583 27.4873C95.1261 26.8612 95.3096 26.192 95.3096 25.4799V23.1555C95.1848 23.2807 94.9418 23.3981 94.5822 23.5077C94.23 23.6094 93.8266 23.6994 93.3728 23.7777C92.9181 23.8481 92.4759 23.9146 92.046 23.9773C91.6154 24.032 91.2549 24.079 90.9656 24.1182C90.2845 24.2042 89.662 24.349 89.0982 24.5525C88.5427 24.7559 88.0963 25.0494 87.7599 25.433C87.4309 25.8086 87.2664 26.3095 87.2664 26.9355C87.2664 27.8043 87.588 28.4616 88.2294 28.9077C88.8717 29.346 89.6893 29.5652 90.6837 29.5652ZM117.012 18.3541L113.831 18.9176C113.697 18.5106 113.486 18.1233 113.196 17.7554C112.915 17.3876 112.531 17.0863 112.046 16.8515C111.56 16.6167 110.953 16.4993 110.226 16.4993C109.231 16.4993 108.401 16.7224 107.736 17.1685C107.071 17.6068 106.738 18.1741 106.738 18.8706C106.738 19.4733 106.961 19.9585 107.408 20.3263C107.853 20.6942 108.574 20.9954 109.568 21.2302L112.433 21.8877C114.093 22.2711 115.329 22.862 116.143 23.6603C116.958 24.4586 117.364 25.4955 117.364 26.7712C117.364 27.8512 117.051 28.8139 116.425 29.6591C115.807 30.4965 114.942 31.1539 113.831 31.6313C112.726 32.1087 111.446 32.3473 109.991 32.3473C107.971 32.3473 106.323 31.9169 105.047 31.056C103.771 30.1873 102.988 28.9547 102.699 27.3582L106.092 26.8416C106.303 27.726 106.738 28.3951 107.396 28.8491C108.053 29.2952 108.91 29.5182 109.967 29.5182C111.117 29.5182 112.038 29.2795 112.726 28.8021C113.416 28.3168 113.759 27.726 113.759 27.0295C113.759 26.466 113.549 25.9925 113.125 25.609C112.71 25.2255 112.073 24.9359 111.212 24.7403L108.159 24.0711C106.476 23.6877 105.231 23.0773 104.425 22.2398C103.626 21.4025 103.227 20.342 103.227 19.0585C103.227 17.9941 103.525 17.0628 104.119 16.2645C104.714 15.4663 105.536 14.8441 106.585 14.398C107.634 13.944 108.836 13.7171 110.19 13.7171C112.139 13.7171 113.673 14.1397 114.793 14.9849C115.913 15.8224 116.652 16.9454 117.012 18.3541ZM128.998 32.3473C127.221 32.3473 125.69 31.9678 124.407 31.2087C123.131 30.4417 122.145 29.3656 121.448 27.9803C120.759 26.5873 120.415 24.9555 120.415 23.0851C120.415 21.2381 120.759 19.6102 121.448 18.2016C122.145 16.7928 123.115 15.6932 124.36 14.9028C125.613 14.1123 127.077 13.7171 128.751 13.7171C129.769 13.7171 130.755 13.8854 131.711 14.2219C132.666 14.5584 133.523 15.0867 134.282 15.8067C135.041 16.5267 135.64 17.462 136.079 18.6124C136.517 19.755 136.736 21.1442 136.736 22.7798V24.0242H122.399V21.3946H133.295C133.295 20.4711 133.108 19.6533 132.732 18.9411C132.356 18.2211 131.828 17.6537 131.147 17.2389C130.473 16.8241 129.683 16.6167 128.775 16.6167C127.788 16.6167 126.928 16.8593 126.191 17.3445C125.464 17.822 124.9 18.4481 124.501 19.2229C124.109 19.9898 123.914 20.8233 123.914 21.7233V23.7777C123.914 24.983 124.125 26.0082 124.548 26.8534C124.979 27.6986 125.577 28.3443 126.344 28.7904C127.111 29.2287 128.007 29.4477 129.033 29.4477C129.699 29.4477 130.305 29.3539 130.854 29.166C131.402 28.9704 131.874 28.6808 132.274 28.2973C132.673 27.9139 132.979 27.4403 133.19 26.8768L136.513 27.4756C136.247 28.4539 135.77 29.3108 135.08 30.0464C134.399 30.7743 133.542 31.3417 132.508 31.7487C131.483 32.1478 130.313 32.3473 128.998 32.3473ZM144.143 7.94138V31.9834H140.631V7.94138H144.143ZM148.865 31.9834V13.9519H152.377V31.9834H148.865ZM150.638 11.1697C150.028 11.1697 149.503 10.9662 149.065 10.5592C148.635 10.1444 148.42 9.65139 148.42 9.08007C148.42 8.50097 148.635 8.0079 149.065 7.60094C149.503 7.18615 150.028 6.97876 150.638 6.97876C151.249 6.97876 151.77 7.18615 152.2 7.60094C152.639 8.0079 152.858 8.50097 152.858 9.08007C152.858 9.65139 152.639 10.1444 152.2 10.5592C151.77 10.9662 151.249 11.1697 150.638 11.1697ZM157.381 31.9834V7.94138H160.892V16.875H161.104C161.307 16.4993 161.6 16.0649 161.984 15.5719C162.368 15.0789 162.9 14.6484 163.581 14.2806C164.262 13.9049 165.162 13.7171 166.282 13.7171C167.738 13.7171 169.038 14.0849 170.18 14.8206C171.323 15.5563 172.22 16.6167 172.869 18.002C173.527 19.3872 173.855 21.0542 173.855 23.0029C173.855 24.9516 173.531 26.6225 172.881 28.0156C172.231 29.4008 171.339 30.4691 170.204 31.2204C169.069 31.9639 167.773 32.3356 166.317 32.3356C165.221 32.3356 164.325 32.1517 163.628 31.7839C162.94 31.416 162.399 30.9856 162.008 30.4925C161.616 29.9995 161.315 29.5612 161.104 29.1777H160.81V31.9834H157.381ZM160.822 22.9677C160.822 24.2355 161.006 25.3468 161.374 26.3016C161.742 27.2564 162.274 28.0039 162.971 28.5439C163.667 29.076 164.521 29.3421 165.53 29.3421C166.579 29.3421 167.456 29.0643 168.161 28.5087C168.865 27.9451 169.397 27.182 169.758 26.2195C170.126 25.2568 170.309 24.1729 170.309 22.9677C170.309 21.7781 170.13 20.7098 169.769 19.7629C169.417 18.8159 168.885 18.0685 168.172 17.5206C167.468 16.9728 166.588 16.6989 165.53 16.6989C164.513 16.6989 163.651 16.9611 162.947 17.4854C162.25 18.0098 161.722 18.7416 161.362 19.6806C161.002 20.6198 160.822 21.7155 160.822 22.9677Z" fill="white"/>
</g>
<defs>
<clipPath id="clip0_139_7378">
<rect width="175" height="40" fill="white" transform="translate(0.5)"/>
</clipPath>
</defs>
</svg>
