<svg width="48" height="48" viewBox="0 0 48 48" fill="none" xmlns="http://www.w3.org/2000/svg">
<path d="M0 8C0 3.58172 3.58172 0 8 0H40C44.4183 0 48 3.58172 48 8V40C48 44.4183 44.4183 48 40 48H8C3.58172 48 0 44.4183 0 40V8Z" fill="#002266"/>
<mask id="mask0_128_7654" style="mask-type:luminance" maskUnits="userSpaceOnUse" x="7" y="17" width="33" height="15">
<path d="M39.5 17H7.5V31.4822H39.5V17Z" fill="white"/>
</mask>
<g mask="url(#mask0_128_7654)">
<path d="M38.8714 27.9738H23.2642C22.9171 27.9738 22.6357 28.2572 22.6357 28.6069V30.8228C22.6357 31.1724 22.9171 31.4559 23.2642 31.4559H38.8714C39.2185 31.4559 39.4999 31.1724 39.4999 30.8228V28.6069C39.4999 28.2572 39.2185 27.9738 38.8714 27.9738Z" fill="#FDE235"/>
<path d="M18.9808 17.4476L7.94482 28.5648C7.69938 28.812 7.69938 29.2129 7.94482 29.4601L9.50022 31.0269C9.74566 31.2742 10.1436 31.2742 10.389 31.0269L21.425 19.9098C21.6704 19.6626 21.6704 19.2617 21.425 19.0145L19.8696 17.4476C19.6241 17.2004 19.2262 17.2004 18.9808 17.4476Z" fill="white"/>
<path d="M26.181 17.4476L15.145 28.5648C14.8996 28.812 14.8996 29.2129 15.145 29.4601L16.7004 31.0269C16.9459 31.2742 17.3438 31.2742 17.5893 31.0269L28.6252 19.9098C28.8706 19.6626 28.8706 19.2617 28.6252 19.0145L27.0698 17.4476C26.8244 17.2004 26.4264 17.2004 26.181 17.4476Z" fill="white"/>
</g>
</svg>
